<svg width="648" height="700" viewBox="0 0 648 700" fill="none" xmlns="http://www.w3.org/2000/svg">
<g filter="url(#filter0_i_70_3597)">
<path fill-rule="evenodd" clip-rule="evenodd" d="M254.876 0.529703L251.774 0.963295L251.006 38.8535L250.239 76.7437L245.985 83.9418C232.577 106.635 227.424 118.648 227.424 127.211C227.424 129.257 227.925 135.183 229 140C230.826 148.187 234.025 153.676 246.469 174.815C249.448 179.875 255 192.942 249.394 188.996C248.784 188.996 246.2 186.527 243.649 183.509C239.218 178.265 232.109 173.303 220.105 167.079C211.725 162.732 201.624 154.925 198.482 150.365C195.695 146.32 195.666 145.941 195.072 105.854C194.531 69.3607 194.275 65.3092 192.439 64.2657C191.058 63.4807 189.327 63.4515 187.047 64.176L183.689 65.2421L183.705 124.687L183.721 184.13C184.984 187.219 185.692 188.951 186.955 192.039C192.85 206.457 199.092 212.457 223.933 227.59C241.696 238.41 246.999 243.007 248.92 249.248C250.454 254.23 250.584 262.523 249.13 262.523C248.546 262.523 247.129 261.226 245.978 259.642C240.996 252.781 232.968 246.485 217.254 237.116C201.834 227.921 195.383 223.006 187.571 214.503C182.754 209.26 181.931 211.339 182.56 227.146C183.618 253.681 184.11 257.971 186.645 262.704C189.815 268.625 189.718 270.092 186.156 270.092C184.547 270.092 182.955 270.494 182.619 270.986C182.282 271.478 182.482 278.655 183.064 286.935C184.403 305.97 187.89 316.748 195.769 326.207C201.31 332.859 206.485 336.621 225.626 347.911C237.069 354.661 245.461 361.108 247.549 364.757C248.248 365.975 249.197 369.989 249.659 373.677C250.752 382.396 249.128 382.396 241.333 373.677C237.894 369.831 232.531 365.506 228.352 363.21C214.754 355.737 199.351 345.331 192.642 339.086C188.931 335.632 185.196 332.806 184.343 332.806C181.918 332.806 183.161 376.483 185.714 380.923C189.312 387.18 189.456 388.835 186.437 389.222C183.72 389.569 183.69 389.739 183.802 404.17C183.931 420.55 185.837 429.007 191.609 438.811C196.578 447.251 203.256 453.028 218.501 462.077C232.32 470.279 244.57 480.854 248.158 487.675C250.02 491.217 250.19 499.334 250.19 584.491V677.442L260.075 682.658C265.512 685.527 276.141 690.753 283.695 694.269C300.417 702.055 301.166 702.038 320.783 693.416C354.943 678.401 399.732 651.727 429.923 628.416C466.57 600.122 508.837 555.327 531.328 520.949C546.002 498.517 563.532 463.827 561.238 461.757C560.846 461.404 559.243 461.734 557.676 462.491C554.044 464.245 551.028 463.355 544.867 458.71C542.153 456.664 539.237 454.991 538.387 454.991C537.537 454.991 535.942 457.471 534.843 460.502C527.999 479.385 505.408 514.663 482.633 542.034C447.613 584.121 404.834 619.827 355.938 647.781C338.341 657.841 304.828 673.409 300.769 673.409C297.577 673.409 266.977 659.268 264.619 656.703C263.535 655.526 263.132 635.037 262.977 573.178L262.771 491.213L265.507 486.591C269.823 479.299 282.109 468.928 294.524 462.099C319.909 448.135 327.037 437.361 329.452 409.31C330.809 393.56 330.354 389.032 327.415 389.032C324.597 389.032 324.273 386.746 326.258 380.897C328.188 375.206 330.899 346.298 330.253 338.265C330.043 335.652 329.263 333.335 328.519 333.114C327.775 332.893 324.287 335.437 320.767 338.765C317.246 342.093 306.397 349.702 296.658 355.674C285.306 362.634 276.427 369.016 271.919 373.457C268.051 377.266 264.545 380.382 264.129 380.382C263.712 380.382 263.382 378.072 263.397 375.246C263.452 364.459 270.364 356.786 289.626 346.134C301.59 339.516 316.72 327.534 320.998 321.288C326.336 313.494 328.252 305.113 328.936 286.581C329.508 271.083 329.361 269.01 327.702 269.01C324.607 269.01 324.261 267.173 326.331 261.733C328.077 257.148 329.97 233.723 329.892 217.666C329.863 211.522 327.142 211.731 322.083 218.264C318.037 223.49 315.368 225.346 287.851 242.081C278.433 247.809 274.105 251.297 268.643 257.559C263.807 263.103 261.845 262.092 262.907 254.603C263.343 251.525 264.681 247.241 265.882 245.084C268.542 240.3 276.926 233.496 286.663 228.219C301.391 220.237 317.542 207.345 321.626 200.309C328.868 187.837 328.488 191.637 328.968 126.822C329.456 61.1917 329.605 62.6168 322.442 64.0365C319.363 64.6474 318.666 65.3968 318.049 68.7606C317.646 70.9589 317.311 89.3503 317.304 109.63L317.29 146.501L313.848 150.79C310.162 155.381 297.297 164.503 285.46 170.916C281.462 173.081 275.078 177.846 271.273 181.503C261 195 257.003 192.04 271.19 166.829C274.701 160.882 278.862 152.124 281 147.366C284.446 139.697 284.897 137.488 284.983 127.882C284.891 126 285 125.5 284.5 122.5C284 119.5 283.389 118.018 282.5 116L274.154 95.984L262.771 74.9207L262.413 38.6978C262.215 18.7752 261.828 1.86725 261.552 1.12333C261.047 -0.232599 260.609 -0.271525 254.876 0.529703ZM219.409 36.3655C218.147 37.1083 216.232 63.8873 216.111 82.4896C216.042 93.1554 216.08 93.3078 218.969 93.6755C224.502 94.3805 225.028 92.0936 225.014 67.4155C225.007 54.891 224.671 42.8499 224.27 40.656C223.539 36.6661 221.682 35.0269 219.409 36.3655ZM290.006 36.7201C288.923 37.6976 288.533 44.94 288.533 64.1176C288.533 91.6546 289.065 94.5318 294.004 93.6776C296.105 93.3143 296.35 92.1628 296.633 81.3954C296.804 74.8612 296.535 61.9778 296.034 52.7674C295.29 39.0784 294.79 35.9622 293.301 35.7048C292.299 35.5318 290.816 35.9892 290.006 36.7201ZM346.664 87.3078C346.031 89.106 346.906 107.953 347.652 108.627C347.831 108.789 359.27 110.865 373.074 113.242C417.409 120.879 445.085 127.735 487.438 141.569C517.579 151.414 533.547 157.314 550.003 164.687C565.419 171.594 563.631 171.882 576.929 160.345C584.644 153.651 584.918 153.244 582.666 151.823C576.83 148.141 521.969 126.46 503.015 120.346C485.021 114.542 456.061 105.996 437.113 100.897C413.819 94.6313 390.362 90.5106 351.194 85.8059C348.257 85.4534 347.192 85.8059 346.664 87.3078ZM263.749 101.823C271.948 117.442 274.111 119.963 273.5 129.5C273.051 136.498 271.364 141.369 266.764 150.075C263.78 155.721 260.251 161.53 258.921 162.983C258.921 162.983 257.007 165.75 256.503 165.625C256 165.5 253.328 161.086 253.328 161.086C251.581 158.59 247.879 152.535 245.098 147.631C240.206 139.003 238.501 139.441 238.5 129.5C238.498 119.41 240.138 118 245.578 108.44C253.574 94.387 255.411 91.6946 257.003 91.687C257.786 91.6838 260.821 96.2446 263.749 101.823ZM135.161 109.968C97.7113 121.194 82.1056 126.677 51.6241 139.315C21.3186 151.881 11.0702 156.896 9.1782 160.087C7.27422 163.296 2.5017 199.267 0.833775 222.968C-0.738293 245.304 0.0417492 308.151 2.0955 324.696C6.51455 360.305 17.9672 410.383 27.239 434.634C32.8599 449.339 48.0713 481.797 56.1042 496.225C64.0652 510.527 80.1322 534.703 89.1919 546.014C117.556 581.422 158.734 620.104 193.367 643.873C207.683 653.697 231.19 668.003 233.018 668.003C234.944 668.003 234.811 674.873 234.624 585.285C234.502 526.582 234.183 513.536 232.824 511.758C231.916 510.568 216.52 496.214 198.611 479.86C180.703 463.506 165.295 449.107 164.371 447.863C163.022 446.045 162.583 436.726 162.134 400.401C161.826 375.54 161.428 355.043 161.248 354.851C161.07 354.66 152.429 346.801 142.05 337.389L123.178 320.276V283.542V246.807L130.667 239.767C134.787 235.895 141.987 229.092 146.669 224.648L155.183 216.568L154.602 197.621L154.332 179.805L159.522 174.606C165.805 169.96 141.689 178.594 139.5 172C134.936 158.253 140.5 171 141 173C139.345 178.544 140.471 176.778 144.746 179.805C144.746 182.508 144.659 179.835 144.704 196.461L144.746 212.035L131.332 224.304C123.955 231.051 117.339 236.572 116.631 236.572C115.922 236.572 110.366 232.062 104.282 226.55L93.2228 216.527V205.798V196.682C93.8341 196.512 93.2228 196.024 93.2228 196.024L86.6325 193.321C90.1373 196.658 86.6325 187.474 86.6325 193.321C87.8307 194.943 81.4778 195.529 86.6325 193.321C86.6325 197.38 96.0829 198.33 84.8352 195.483L82.0517 196.823V208.999L81.3951 220.893L96.2962 233.946L111.196 246.998L111.424 266.384C111.548 277.046 111.726 294.564 111.817 305.312L111.983 324.855L131.42 342.078L150.856 359.3L150.673 405.244L150.489 451.187L185.625 483.414C204.95 501.14 221.173 516.228 221.677 516.943C223.144 519.026 222.856 631.239 221.385 631.239C218.279 631.239 184.322 605.739 167.654 590.891C125.4 553.249 97.6646 518.455 72.8889 472.008C64.2725 455.854 61.8701 450.297 52.4388 424.715C33.3296 372.878 24.8342 315.155 26.6603 249.547C27.3576 224.501 28.1257 214.237 31.3897 186.376L32.7736 174.565L45.9241 168.091C66.3191 158.053 125.414 137.05 154.332 129.563L165.715 126.617L166.053 114.014C166.313 104.306 166.038 101.425 164.855 101.469C164.01 101.501 150.648 105.325 135.161 109.968ZM604.279 149.079C597.507 158.99 594.686 162.216 587.453 168.322C578.025 176.28 555.504 191.551 543.592 198.063C524.62 208.434 502.524 228.297 495.494 241.302C487.081 256.862 485.764 261.626 485.741 276.579C485.731 284.013 486.397 292.772 487.224 296.042C490.216 307.882 493.581 316.721 494.943 316.312C495.694 316.086 496.982 313.501 497.805 310.567C500.43 301.204 511.931 282.047 520.976 271.97C525.653 266.758 539.077 253.864 550.806 243.316C562.536 232.768 574.982 220.833 578.462 216.793C581.944 212.754 585.032 209.665 585.326 209.93C587.294 211.707 567.727 236.191 548.763 255.68C533.8 271.057 525.646 281.895 515.502 299.888C504.034 320.23 498.721 336.053 494.541 362.311C493.338 369.87 493.326 374.733 494.482 386.099C495.283 393.957 496.261 401.801 496.656 403.531L497.376 406.677L487.315 406.004C468.579 404.752 449.345 397.967 433.039 386.857C418.573 377 404.365 354.834 400.019 335.339C396.984 321.724 396.965 317.319 399.888 304.507C404.648 283.626 412.076 271.028 428.145 256.576C434.097 251.223 442.009 245.229 445.727 243.253C453.915 238.904 467.074 234.773 478.245 233.044C486.506 231.766 486.518 231.759 491.289 225.419C493.914 221.929 500.874 214.779 506.752 209.529L517.44 199.985L514.378 190.451C512.694 185.207 510.845 180.491 510.27 179.972C509.695 179.453 502.46 178.895 494.195 178.733C476.44 178.386 476.078 178.573 474.098 189.11C472.39 198.213 470.717 200.432 464.939 201.266C462.361 201.639 457.443 202.761 454.01 203.762L447.771 205.58L440.312 198.91C435.967 195.024 431.812 192.24 430.357 192.24C427.702 192.24 409.679 200.467 405.845 203.43C402.966 205.654 402.981 207.676 405.943 216.202C407.253 219.971 408.331 224.043 408.34 225.25C408.349 226.524 405.124 230.334 400.644 234.34L392.932 241.238L385.965 239.283C382.133 238.208 376.848 237.28 374.219 237.221C369.717 237.119 369.182 237.458 364.999 243.06C362.556 246.331 358.859 252.133 356.783 255.953L353.009 262.899L362.273 270.708C372.416 279.258 371.961 277.836 368.282 289.515C367.258 292.764 365.743 296.034 364.914 296.781C364.086 297.529 359.098 298.877 353.829 299.778C340.452 302.066 340.057 302.623 340.057 319.203C340.057 328.108 340.543 332.956 341.554 334.128C342.379 335.083 348.036 336.935 354.126 338.245L365.2 340.625L367.606 347.915C371.275 359.032 371.05 359.894 362.783 366.357C358.808 369.465 355.04 372.874 354.414 373.931C353.056 376.219 355.516 381.552 363.127 392.817C369.151 401.731 370.56 402.159 382.949 398.83C387.509 397.604 391.633 396.601 392.112 396.601C392.593 396.601 396.444 399.598 400.671 403.261C409.418 410.841 409.729 411.975 405.873 422.279C402.43 431.477 403.017 434.296 408.955 437.072C411.591 438.304 417.305 441.137 421.651 443.367C425.998 445.596 430.327 447.422 431.271 447.422C432.216 447.422 436.462 444.259 440.707 440.393C444.953 436.528 449.342 433.365 450.461 433.365C454.458 433.365 467.703 436.861 469.673 438.436C470.832 439.362 472.284 443.274 473.11 447.692C475.301 459.418 476.869 460.397 493.453 460.397C500.776 460.397 507.767 459.914 508.989 459.324C511.41 458.155 512.898 454.601 515.018 444.928C516.567 437.858 516.699 437.772 530.98 434.677L539.176 432.9L547.204 440.868C554.451 448.06 555.519 448.74 558.181 447.858C563.715 446.025 584.492 433.911 585.127 432.146C585.476 431.18 584.353 427.044 582.633 422.955C577.664 411.147 577.509 411.966 586.198 404.225L594.026 397.253L602.14 399.047C615.569 402.016 617.563 402.213 618.941 400.704C621.607 397.784 632.459 380.087 633.186 377.475C633.839 375.128 632.826 373.798 625.995 368.046C617.261 360.688 617.057 360.102 619.726 350.033C622.336 340.185 622.692 339.88 633.452 338.303C647.636 336.225 648 335.749 648 319.29C648 307.044 647.778 305.671 645.489 303.746C643.307 301.912 631.94 299.286 626.182 299.286C623.178 299.286 621.395 296.439 619.255 288.221C618.146 283.964 616.644 280.303 615.915 280.084C615.187 279.864 613.713 281.216 612.642 283.086C611.569 284.957 605.652 291.24 599.491 297.05L588.291 307.612L588.958 316.397C590.735 339.786 580.176 363.519 559.763 382.024C551.7 389.332 548.065 391.713 538.794 395.754C525.747 401.441 519.168 403.521 516.808 402.703C513.845 401.677 511.488 395.971 509.52 385.061C507.892 376.024 507.819 372.658 509.035 362.541C510.872 347.269 514.276 335.26 517.704 331.966C519.181 330.546 530.095 325.107 541.957 319.878C577.942 304.018 593.839 291.036 607.562 266.307C612.976 256.553 618.818 239.411 620.398 228.655C621.941 218.143 621.937 200.618 620.389 190.618C619.746 186.455 618.919 181.114 618.554 178.749C618.188 176.385 617.449 173.952 616.911 173.343C616.372 172.734 615.654 170.533 615.314 168.451C614.476 163.329 609.956 148.198 608.619 146.043C607.736 144.617 606.954 145.164 604.279 149.079ZM206.872 173.088C211.914 176.232 217.658 179.512 219.635 180.377C226.5 183.38 238.771 195.554 242.985 203.542C246.871 210.911 250.39 225.939 248.607 227.549C248.137 227.971 246.28 227.265 244.479 225.979C242.677 224.692 236.422 220.832 230.579 217.401C211.974 206.477 206.524 201.872 201.634 192.942C198.055 186.408 197.142 183.37 196.596 176.166C196.228 171.329 196.326 167.37 196.815 167.37C197.303 167.37 201.829 169.942 206.872 173.088ZM317.022 174.669C315.944 187.976 313.05 193.971 303.55 202.577C298.916 206.775 290.81 212.545 285.538 215.399C280.265 218.254 273.704 222.24 270.958 224.256C268.21 226.272 265.38 227.922 264.667 227.922C262.72 227.922 263.097 222.742 265.719 213.493C269.993 198.411 278.032 189.149 295.501 179.174C301.884 175.529 308.938 171.383 311.177 169.959C313.417 168.536 315.781 167.37 316.43 167.37C317.149 167.37 317.38 170.23 317.022 174.669ZM211.248 248.021C217.838 252.075 226.273 258.123 229.993 261.46C240.266 270.676 247.16 284.291 249.555 300.097C250.693 307.611 249.019 307.541 240.597 299.721C237.012 296.392 229.33 290.733 223.528 287.147C210.534 279.116 204.596 273.161 200.6 264.153C197.686 257.585 194.979 243.85 196.036 240.99C196.699 239.195 197.529 239.579 211.248 248.021ZM317.759 241.787C318.845 243.372 316.2 256.776 313.523 263.249C310.311 271.022 299.502 281.533 286.279 289.742C281.259 292.859 274.809 297.742 271.946 300.592C266.837 305.681 263.37 307.189 263.37 304.324C263.37 298.959 268.864 280.258 272.316 273.876C277.367 264.538 283.256 259.254 300.038 249.006C312.495 241.4 316.403 239.807 317.759 241.787ZM151.785 243.365C145.546 248.19 145.35 248.88 145.245 266.592C145.148 282.977 145.07 283.468 142.249 285.674C133.982 292.138 131.652 299.687 135.731 306.804C139.773 313.858 150.969 316.476 158.685 312.173C164.79 308.768 166.314 306.106 166.314 298.85C166.314 292.608 166.148 292.269 160.922 287.878L155.53 283.347V263.267C155.53 252.224 155.07 242.931 154.508 242.617C153.946 242.304 152.721 242.64 151.785 243.365ZM61.5945 249.632C52.9876 251.849 47.1595 262.196 50.5265 269.28C51.4455 271.213 54.1883 274.498 56.6218 276.579L61.0469 280.364L60.7473 299.827L60.4478 319.29L88.8289 344.7L117.209 370.11L117.198 382.274C117.192 388.965 116.782 394.437 116.289 394.435C115.795 394.431 108.516 388.197 100.113 380.58L84.8352 366.73L84.8304 360.31C84.8244 351.938 81.8936 347.48 74.4382 344.504C69.7843 342.647 68.2027 342.48 64.5505 343.467C57.7925 345.295 52.3394 351.067 51.5725 357.204C50.3312 367.138 57.8692 373.906 70.1402 373.878L77.0467 373.863L97.117 392.46L117.187 411.057V437.055V463.055L153.733 496.096L190.279 529.139V559.433V589.728L194.437 593.825C196.724 596.078 199.285 597.713 200.128 597.458C201.331 597.093 201.676 589.209 201.731 560.863L201.8 524.733L165.485 491.772L129.169 458.813L129.21 412.298L129.252 365.785L103.338 342.882C89.0853 330.285 76.1253 318.391 74.5389 316.45C71.7841 313.081 71.6547 312.171 71.6547 296.161V279.399L77.3104 274.909C82.827 270.527 82.9636 270.269 82.8689 264.347C82.8102 260.662 81.9954 257.207 80.796 255.556C77.2984 250.739 68.1979 247.931 61.5945 249.632ZM626.874 255.765C626.499 256.805 624.816 260.704 623.131 264.428C621.447 268.152 620.393 271.49 620.788 271.848C621.184 272.204 623.964 270.68 626.965 268.46C631.443 265.15 632.423 263.782 632.423 260.848C632.423 258.881 631.576 256.507 630.541 255.571C628.153 253.417 627.711 253.44 626.874 255.765ZM71.9267 262.088C72.9105 264.036 72.7475 265.211 71.1982 267.344C68.9312 270.466 65.521 270.89 62.7531 268.393C60.2141 266.101 60.3819 262.964 63.1785 260.44C66.0555 257.844 70.1749 258.62 71.9267 262.088ZM205.469 291.572C209.307 293.872 216.103 297.832 220.571 300.372C236.188 309.248 245.679 322.119 248.103 337.705C248.795 342.161 249.052 346.088 248.671 346.431C248.291 346.774 245.107 345.149 241.596 342.82C238.084 340.491 231.554 336.747 227.082 334.5C210.432 326.133 200.393 314.602 197.474 300.491C195.968 293.205 195.926 287.392 197.381 287.392C197.991 287.392 201.631 289.274 205.469 291.572ZM316.301 293.907C315.132 311.586 306.915 322.688 287.14 333.302C281.646 336.251 274.519 340.509 271.301 342.763C268.085 345.018 264.986 346.863 264.412 346.863C262.835 346.863 263.15 343.973 265.823 333.909C270.064 317.947 277.493 308.81 293.61 299.737C299.715 296.3 306.596 292.126 308.903 290.461C315.122 285.97 316.774 286.74 316.301 293.907ZM154.863 296.283C157.347 299.482 157.215 301.797 154.421 304.08C151.395 306.551 148.25 305.903 146.042 302.353C142.145 296.087 150.336 290.45 154.863 296.283ZM411.593 294.563C411.176 294.938 412.131 297.25 413.714 299.699C415.297 302.148 418.555 310.477 420.954 318.209C429.559 345.945 435.522 352.788 460.572 363.683C469.383 367.515 477.686 370.651 479.021 370.651C486.798 370.651 473.505 345.144 459.297 332.806C456.215 330.13 452.559 326.523 451.174 324.791L448.655 321.642L454.758 324.639C466.294 330.306 485.6 349.836 487.923 358.193C489.209 362.814 492.207 361.56 492.399 356.324C492.91 342.275 490.242 333.14 482.499 322.438C472.016 307.946 454.529 299.699 425.587 295.598C411.563 293.611 412.566 293.685 411.593 294.563ZM72.7931 354.907C74.6898 356.969 73.9409 362.047 71.5409 363.402C70.4889 363.995 68.1979 364.158 66.4485 363.761C63.7009 363.139 63.2672 362.477 63.2672 358.917C63.2672 356.648 63.6267 354.467 64.0664 354.071C65.5151 352.763 71.3348 353.321 72.7931 354.907ZM212.042 367.971C227.6 377.287 235.114 384.114 241.027 394.305C247.102 404.776 251.98 423.589 249.044 425.226C248.48 425.541 245.826 423.436 243.147 420.547C240.468 417.659 232.604 411.762 225.67 407.441C210.768 398.155 205.506 393.203 201.06 384.28C198.158 378.455 195.072 366.788 195.072 361.641C195.072 358.496 198.11 359.63 212.042 367.971ZM317.541 361.73C318.452 365.778 315.883 376.896 312.553 383.319C308.141 391.826 300.378 399.336 287.365 407.682C281.746 411.286 274.383 416.641 271.002 419.581C267.622 422.521 264.566 424.505 264.213 423.989C263.861 423.474 264.555 418.108 265.758 412.064C268.31 399.246 273.997 388.358 282.044 380.887C287.074 376.217 312.967 360.091 315.705 359.924C316.48 359.877 317.306 360.69 317.541 361.73ZM63.9454 394.302C62.9221 396.086 62.432 398.428 62.855 399.507C63.278 400.585 68.9755 406.421 75.5166 412.475L87.409 423.483L87.2245 449.238C87.1226 463.404 87.0831 475.816 87.1358 476.82C87.1885 477.825 98.3859 488.602 112.02 500.77L136.808 522.893L137.636 530.104C138.308 535.965 139.097 537.912 141.854 540.509C149.182 547.411 160.308 547.111 167.401 539.82C171.723 535.378 172.343 529.571 169.143 523.486C166.373 518.218 157.058 514.009 150.22 514.934L145.263 515.605L121.527 494.734L97.7916 473.863L98.6603 452.129C99.1372 440.176 99.142 427.609 98.6711 424.202L98.6148 418.227L82.8222 404.872C74.5784 397.647 67.3759 391.583 66.8187 391.396C66.2603 391.21 64.9675 392.517 63.9454 394.302ZM199.309 406.396C199.739 407.025 206.915 411.581 215.256 416.521C232.606 426.797 237.76 431.271 242.761 440.393C247.221 448.528 251.388 465.008 249.282 466.182C248.741 466.483 245.625 464.91 242.355 462.686C239.086 460.462 232.097 456.252 226.825 453.332C213.112 445.735 204.689 437.804 200.675 428.711C197.16 420.752 194.879 405.252 197.221 405.252C197.938 405.252 198.877 405.766 199.309 406.396ZM317.272 409.847C317.245 415.293 314.021 426.371 310.784 432.133C307.15 438.606 297.677 446.523 285.361 453.379C280.186 456.26 273.451 460.478 270.393 462.751C267.337 465.025 264.505 466.885 264.103 466.885C261.41 466.885 265.975 448.047 270.784 439.312C275.474 430.795 281.049 425.712 292.727 419.307C297.999 416.417 305.007 412.315 308.3 410.192C315.752 405.389 317.295 405.329 317.272 409.847ZM356.289 422.653C350.319 427.382 348.673 432.926 351.356 439.264C352.494 441.954 355.135 445.363 357.225 446.841L361.026 449.528V463.342C361.026 474.628 360.651 477.634 358.98 479.764C357.855 481.198 345.453 492.883 331.421 505.731C317.389 518.578 304.183 530.786 302.075 532.859L298.245 536.627L297.553 575.553C297.174 596.963 297.225 624.332 297.667 636.375C298.406 656.452 298.652 658.271 300.626 658.271C301.809 658.271 304.259 657.122 306.067 655.718L309.356 653.165L309.344 597.088L309.331 541.011L321.941 529.087C328.876 522.529 343.148 509.397 353.655 499.905L372.761 482.646L372.028 466.527L371.294 450.408L376.794 445.914C381.663 441.936 382.354 440.802 382.81 436.041C383.77 426.025 376.851 419.314 365.561 419.31C361.622 419.308 359.581 420.045 356.289 422.653ZM371.565 431.305C374.575 435.646 368.892 442.205 364.118 439.9C361.169 438.475 359.698 432.757 361.716 430.562C363.614 428.498 369.951 428.977 371.565 431.305ZM333.023 464.452C318.678 476.719 286.137 508.292 286.137 509.943C286.137 512.066 289.635 515.542 291.771 515.542C293.306 515.542 338.618 473.313 341.517 469.18C343.402 466.494 343.425 465.993 341.759 463.847C339.327 460.714 337.223 460.86 333.023 464.452ZM407.899 466.911C399.999 469.071 394.609 476.827 395.909 484.165L396.673 488.476L364.058 518.133C346.12 534.444 330.821 548.685 330.059 549.778C329.041 551.236 328.833 564.033 329.273 597.891L329.872 644.018L335.264 641.683L340.656 639.349L340.917 596.691L341.177 554.034L354.094 542.086C361.197 535.516 375.362 522.476 385.571 513.109L404.134 496.079H411.822C419.23 496.079 419.676 495.922 424.062 491.762C429.799 486.32 431.026 481.338 428.083 475.447C424.724 468.727 415.51 464.83 407.899 466.911ZM414.767 476.554C420.019 478.357 419.142 485.763 413.527 487.035C408.202 488.241 405.281 482.881 408.397 477.626C409.804 475.254 410.59 475.122 414.767 476.554ZM465.89 481.861C459.589 484.911 457.07 488.677 456.771 495.492C456.524 501.089 456.096 501.838 448.908 509.251C444.727 513.563 437.963 520.271 433.878 524.156L426.449 531.221H411.091C392.947 531.221 395.852 529.768 375.057 549.258L360.426 562.969V593.32C360.426 610.013 360.331 624.035 360.212 624.481C359.572 626.904 364.642 625.489 368.241 622.241L372.409 618.48V595.24C372.409 575.046 372.657 571.914 374.304 571.344C375.347 570.983 389.874 570.687 406.588 570.687C436.632 570.687 436.998 570.66 438.842 568.284C439.867 566.962 440.707 564.773 440.707 563.418C440.707 561.467 440.023 560.943 437.412 560.895C435.601 560.863 422.121 560.834 407.457 560.83C387.341 560.827 380.796 560.503 380.796 559.512C380.796 558.79 384.718 554.683 389.512 550.386L398.227 542.574H412.955C421.057 542.574 428.604 542.13 429.729 541.587C430.853 541.044 437.423 535.372 444.328 528.984C451.234 522.594 458.846 515.55 461.245 513.329C465.452 509.435 465.775 509.332 470.332 510.43C474.279 511.38 475.815 511.228 479.672 509.5C486.663 506.369 489.245 502.481 489.183 495.186C489.12 487.973 486.752 484.082 480.896 481.575C475.627 479.318 470.96 479.408 465.89 481.861ZM477.168 491.29C479.61 493.494 479.567 497.017 477.068 499.508C474.606 501.961 472.108 502.022 469.26 499.696C466.535 497.471 466.45 494.163 469.051 491.569C471.485 489.142 474.666 489.034 477.168 491.29ZM158.455 528.855C160.577 534.299 154.634 538.367 150.288 534.445C147.684 532.095 147.835 530.055 150.811 527.37C154.009 524.484 156.977 525.061 158.455 528.855Z" fill="url(#paint0_linear_70_3597)"/>
<path d="M105.256 180.693C105.256 189.952 97.2099 197.459 87.2844 197.459C77.3589 197.459 69.3127 189.952 69.3127 180.693C69.3127 171.433 77.3589 163.926 87.2844 163.926C97.2099 163.926 105.256 171.433 105.256 180.693Z" fill="#8ABF3C"/>
<path d="M98.0674 181.233C98.0674 186.61 93.2397 190.969 87.2845 190.969C81.3292 190.969 76.5015 186.61 76.5015 181.233C76.5015 175.857 81.3292 171.498 87.2845 171.498C93.2397 171.498 98.0674 175.857 98.0674 181.233Z" fill="white"/>
<path d="M167.558 163.386C167.558 172.645 159.512 180.152 149.586 180.152C139.661 180.152 131.614 172.645 131.614 163.386C131.614 154.126 139.661 146.62 149.586 146.62C159.512 146.62 167.558 154.126 167.558 163.386Z" fill="#8ABF3C"/>
<path d="M160.369 163.926C160.369 169.303 155.541 173.662 149.586 173.662C143.631 173.662 138.803 169.303 138.803 163.926C138.803 158.55 143.631 154.191 149.586 154.191C155.541 154.191 160.369 158.55 160.369 163.926Z" fill="white"/>
<path d="M167.558 163.386C167.558 172.645 159.512 180.152 149.586 180.152C139.661 180.152 131.614 172.645 131.614 163.386C131.614 154.126 139.661 146.62 149.586 146.62C159.512 146.62 167.558 154.126 167.558 163.386Z" fill="#8ABF3C"/>
<path d="M160.369 163.926C160.369 169.303 155.541 173.662 149.586 173.662C143.631 173.662 138.803 169.303 138.803 163.926C138.803 158.55 143.631 154.191 149.586 154.191C155.541 154.191 160.369 158.55 160.369 163.926Z" fill="white"/>
<path d="M83.69 263.982C83.69 273.242 75.6438 280.748 65.7184 280.748C55.7929 280.748 47.7467 273.242 47.7467 263.982C47.7467 254.722 55.7929 247.216 65.7184 247.216C75.6438 247.216 83.69 254.722 83.69 263.982Z" fill="#73B63D"/>
<path d="M76.5014 264.523C76.5014 269.9 71.6737 274.258 65.7184 274.258C59.7631 274.258 54.9354 269.9 54.9354 264.523C54.9354 259.146 59.7631 254.788 65.7184 254.788C71.6737 254.788 76.5014 259.146 76.5014 264.523Z" fill="white"/>
<path d="M167.558 298.596C167.558 307.856 159.512 315.362 149.586 315.362C139.661 315.362 131.614 307.856 131.614 298.596C131.614 289.336 139.661 281.83 149.586 281.83C159.512 281.83 167.558 289.336 167.558 298.596Z" fill="#73B63D"/>
<path d="M160.369 299.137C160.369 304.513 155.541 308.872 149.586 308.872C143.631 308.872 138.803 304.513 138.803 299.137C138.803 293.76 143.631 289.402 149.586 289.402C155.541 289.402 160.369 293.76 160.369 299.137Z" fill="white"/>
<path d="M87.2844 358.629C87.2844 368.785 78.7018 377.018 68.1146 377.018C57.5274 377.018 48.9448 368.785 48.9448 358.629C48.9448 348.474 57.5274 340.241 68.1146 340.241C78.7018 340.241 87.2844 348.474 87.2844 358.629Z" fill="#5FAB3D"/>
<path d="M79.6164 359.223C79.6164 365.119 74.4668 369.9 68.1145 369.9C61.7622 369.9 56.6127 365.119 56.6127 359.223C56.6127 353.326 61.7622 348.545 68.1145 348.545C74.4668 348.545 79.6164 353.326 79.6164 359.223Z" fill="white"/>
<path d="M172.35 529.535C172.35 539.691 163.768 547.924 153.181 547.924C142.593 547.924 134.011 539.691 134.011 529.535C134.011 519.38 142.593 511.147 153.181 511.147C163.768 511.147 172.35 519.38 172.35 529.535Z" fill="#3B8F3D"/>
<path d="M164.682 530.128C164.682 536.025 159.533 540.806 153.18 540.806C146.828 540.806 141.679 536.025 141.679 530.128C141.679 524.232 146.828 519.451 153.18 519.451C159.533 519.451 164.682 524.232 164.682 530.128Z" fill="white"/>
<path d="M385.614 434.347C385.614 444.503 377.031 452.736 366.444 452.736C355.857 452.736 347.274 444.503 347.274 434.347C347.274 424.191 355.857 415.959 366.444 415.959C377.031 415.959 385.614 424.191 385.614 434.347Z" fill="#65B03E"/>
<path d="M377.946 434.94C377.946 440.837 372.796 445.618 366.444 445.618C360.092 445.618 354.942 440.837 354.942 434.94C354.942 429.043 360.092 424.263 366.444 424.263C372.796 424.263 377.946 429.043 377.946 434.94Z" fill="white"/>
<path d="M432.34 481.941C432.34 492.097 423.758 500.33 413.17 500.33C402.583 500.33 394.001 492.097 394.001 481.941C394.001 471.785 402.583 463.553 413.17 463.553C423.758 463.553 432.34 471.785 432.34 481.941Z" fill="#5DAA3D"/>
<path d="M424.672 482.534C424.672 488.431 419.523 493.212 413.17 493.212C406.818 493.212 401.668 488.431 401.668 482.534C401.668 476.637 406.818 471.857 413.17 471.857C419.523 471.857 424.672 476.637 424.672 482.534Z" fill="white"/>
<path d="M492.246 492.758C492.246 502.914 483.663 511.147 473.076 511.147C462.489 511.147 453.906 502.914 453.906 492.758C453.906 482.602 462.489 474.37 473.076 474.37C483.663 474.37 492.246 482.602 492.246 492.758Z" fill="#63AE3E"/>
<path d="M484.578 493.351C484.578 499.248 479.428 504.029 473.076 504.029C466.724 504.029 461.574 499.248 461.574 493.351C461.574 487.454 466.724 482.674 473.076 482.674C479.428 482.674 484.578 487.454 484.578 493.351Z" fill="white"/>
</g>
<defs>
<filter id="filter0_i_70_3597" x="0" y="0" width="648" height="704" filterUnits="userSpaceOnUse" color-interpolation-filters="sRGB">
<feFlood flood-opacity="0" result="BackgroundImageFix"/>
<feBlend mode="normal" in="SourceGraphic" in2="BackgroundImageFix" result="shape"/>
<feColorMatrix in="SourceAlpha" type="matrix" values="0 0 0 0 0 0 0 0 0 0 0 0 0 0 0 0 0 0 127 0" result="hardAlpha"/>
<feOffset dy="4"/>
<feGaussianBlur stdDeviation="2"/>
<feComposite in2="hardAlpha" operator="arithmetic" k2="-1" k3="1"/>
<feColorMatrix type="matrix" values="0 0 0 0 0 0 0 0 0 0 0 0 0 0 0 0 0 0 0.25 0"/>
<feBlend mode="normal" in2="shape" result="effect1_innerShadow_70_3597"/>
</filter>
<linearGradient id="paint0_linear_70_3597" x1="169.31" y1="747.477" x2="471.921" y2="-51.108" gradientUnits="userSpaceOnUse">
<stop offset="0.118147" stop-color="#16723C"/>
<stop offset="0.391794" stop-color="#65B03D"/>
<stop offset="0.69041" stop-color="#9FC83A"/>
<stop offset="0.958054" stop-color="#D6D477"/>
</linearGradient>
</defs>
</svg>
